<svg width="12" height="32" viewBox="0 0 12 32" fill="none" xmlns="http://www.w3.org/2000/svg">
<path fill-rule="evenodd" clip-rule="evenodd" d="M11 12.5C11 13.33 8.76 14 6 14C3.24 14 1 13.33 1 12.5V8.296C1 8.053 1.265 7.921 1.47 8.052C2.268 8.562 3.997 9 6 9C8.003 9 9.732 8.562 10.53 8.052C10.735 7.921 11 8.053 11 8.296V12.5ZM3.342 5.278C4.942 4.907 7.398 4.907 8.883 5.278C10.4 5.658 10.379 6.291 8.773 6.692C7.133 7.103 4.523 7.103 3.011 6.692C1.53 6.291 1.706 5.658 3.342 5.278ZM10.33 4.48C9.22 4.16 7.74 4 6.23 4C4.73 4 3.21 4.16 2.01 4.48C0.689 4.83 0 5.31 0 5.79V26.35C0 26.75 0.5 27.15 1.52 27.47C2.66 27.82 4.2 28 5.77 28C7.34 28 8.93 27.82 10.16 27.47C11.39 27.12 12 26.66 12 26.21V5.65C12 5.22 11.439 4.8 10.33 4.48Z" fill="white"/>
</svg>
