<svg width="10" height="32" viewBox="0 0 10 32" fill="none" xmlns="http://www.w3.org/2000/svg">
<path fill-rule="evenodd" clip-rule="evenodd" d="M9.9687 16.446C9.6507 11.207 6.8827 4 4.9997 4C3.1167 4 0.3497 11.207 0.0306997 16.446C1.0777 16.738 2.7507 17 4.9997 17C7.2487 17 8.9217 16.738 9.9687 16.446ZM9.998 17.4694C8.451 17.8664 6.38 17.9994 5 17.9994C3.62 17.9994 1.549 17.8664 0.002 17.4694C0.002 17.491 0.0014941 17.5132 0.000991173 17.5352C0.000494132 17.5569 0 17.5785 0 17.5994C0 20.0734 0.761 21.8274 1.729 22.7874C2.627 22.9144 3.721 22.9994 5 22.9994C6.279 22.9994 7.373 22.9144 8.27 22.7874C9.239 21.8274 10 20.0734 10 17.5994C10 17.5785 9.99951 17.5569 9.99901 17.5352C9.99851 17.5132 9.998 17.491 9.998 17.4694ZM2.917 26.3753L2.5 23.8903C3.367 23.9693 4.322 23.9993 5 23.9993C5.678 23.9993 6.633 23.9693 7.5 23.8903L7.083 26.3753C7.061 26.5503 6.973 26.7123 6.833 26.8343L6.444 27.1733C6.418 27.1973 6.393 27.2213 6.37 27.2463L5.959 27.7143C5.801 27.8943 5.56 27.9993 5.305 27.9993H5H4.695C4.44 27.9993 4.199 27.8943 4.041 27.7143L3.63 27.2463C3.607 27.2213 3.582 27.1973 3.556 27.1733L3.167 26.8343C3.027 26.7123 2.939 26.5503 2.917 26.3753Z" fill="white"/>
</svg>
