<svg width="32" height="32" viewBox="0 0 32 32" fill="none" xmlns="http://www.w3.org/2000/svg">
<path d="M31.878 5.315C31.501 4.277 30.35 3.744 29.316 4.12L1.31599 14.312C0.277987 14.69 -0.257013 15.837 0.120987 16.875C0.415987 17.687 1.18299 18.191 1.99999 18.191C2.22799 18.191 2.45799 18.152 2.68399 18.07L3.49999 17.773V25.044C3.49999 25.675 3.89499 26.238 4.48699 26.454L8.48699 27.91C8.65299 27.97 8.82599 28 8.99999 28C9.17399 28 9.34699 27.97 9.51299 27.91L27.513 21.359C28.106 21.143 28.5 20.58 28.5 19.949L28.684 8.607L30.683 7.879C31.721 7.501 32.256 6.354 31.878 5.316V5.315ZM4.99899 25.044L22.999 18.493L26.999 19.949L8.99899 26.5L4.99899 25.044V25.044Z" fill="white"/>
</svg>
