<svg width="32" height="32" viewBox="0 0 32 32" fill="none" xmlns="http://www.w3.org/2000/svg">
<path fill-rule="evenodd" clip-rule="evenodd" d="M8.362 26.929L10.361 26.18C10.564 26.107 10.738 25.971 10.857 25.791C10.976 25.611 11.033 25.398 11.021 25.183V24.365L24.917 19.146L26.677 19.805C26.779 19.845 26.887 19.865 26.997 19.865C27.099 19.86 27.2 19.839 27.297 19.805L29.296 19.057C29.492 18.974 29.66 18.835 29.777 18.658C29.894 18.48 29.957 18.272 29.956 18.059V9.933C29.969 9.718 29.911 9.504 29.792 9.324C29.673 9.144 29.499 9.008 29.296 8.935L28.676 8.695L30.675 7.966C31.18 7.773 31.589 7.39 31.814 6.899C32.038 6.408 32.06 5.848 31.875 5.341C31.789 5.092 31.654 4.863 31.478 4.666C31.302 4.469 31.089 4.309 30.852 4.195C30.615 4.081 30.356 4.015 30.092 4.001C29.828 3.987 29.565 4.025 29.316 4.114L1.324 14.564C0.819003 14.757 0.410003 15.14 0.186003 15.631C-0.0379973 16.122 -0.0599973 16.682 0.125003 17.189C0.254003 17.593 0.509003 17.945 0.853003 18.194C1.196 18.443 1.61 18.577 2.035 18.576C2.264 18.592 2.494 18.568 2.715 18.506L3.035 18.336V24.493C3.022 24.708 3.08 24.922 3.199 25.102C3.318 25.282 3.492 25.418 3.695 25.491L7.694 26.988C7.807 27.003 7.921 27.003 8.034 26.988C8.143 26.988 8.252 26.967 8.354 26.928H8.364L8.362 26.929ZM9.032 22.588C8.436 22.203 7.943 21.68 7.594 21.063C7.246 20.446 7.053 19.753 7.032 19.045C7.013 18.866 7.013 18.685 7.032 18.506L22.028 12.718V17.388C22.015 17.603 22.073 17.817 22.192 17.996C22.311 18.176 22.485 18.312 22.688 18.385L11.031 22.756C10.367 22.95 9.654 22.89 9.032 22.586V22.588Z" fill="white"/>
</svg>
