<svg width="24" height="32" viewBox="0 0 24 32" fill="none" xmlns="http://www.w3.org/2000/svg">
<path fill-rule="evenodd" clip-rule="evenodd" d="M19.802 18.2297L12.632 20.8837C12.223 21.0367 11.778 21.0367 11.368 20.8837L4.198 18.2297C3.932 18.1307 3.935 17.7207 4.202 17.6267L11.397 15.1107C11.789 14.9717 12.211 14.9717 12.604 15.1107L19.798 17.6267C20.066 17.7207 20.069 18.1307 19.802 18.2297ZM23.471 13.2587L12.631 9.11775C12.222 8.96075 11.779 8.96075 11.369 9.11775L0.53 13.2587C0.214 13.3787 0 13.7337 0 14.1347V17.8477C0 18.2498 0.214 18.6038 0.53 18.7238L11.369 22.8827C11.779 23.0397 12.222 23.0397 12.631 22.8827L23.471 18.7238C23.786 18.6038 24 18.2498 24 17.8477V14.1347C24 13.7337 23.786 13.3787 23.471 13.2587Z" fill="white"/>
</svg>
