<svg width="24" height="32" viewBox="0 0 24 32" fill="none" xmlns="http://www.w3.org/2000/svg">
<path fill-rule="evenodd" clip-rule="evenodd" d="M19.163 20.2435C15.233 21.2515 8.778 21.2515 4.845 20.2435C0.966 19.2495 1.085 17.6675 5.014 16.7085C8.889 15.7635 15.1 15.7635 18.979 16.7085C22.912 17.6675 23.038 19.2495 19.163 20.2435ZM23.925 12.0015C23.633 11.2515 22.44 10.5315 20.378 9.9615C15.72 8.6795 8.265 8.6795 3.615 9.9615C1.553 10.5315 0.367 11.2515 0.075 12.0015C0.022 12.1285 0 12.2485 0 12.3765V16.6265C0 16.7535 0.022 19.8815 0.075 20.0015C0.36 20.7215 1.463 21.4185 3.412 21.9805C8.13 23.3395 15.878 23.3395 20.595 21.9805C22.537 21.4185 23.64 20.7215 23.925 20.0015C23.977 19.8815 24 19.7535 24 19.6265V12.3765C24 12.2485 23.977 12.1285 23.925 12.0015Z" fill="white"/>
</svg>
