<svg width="14" height="32" viewBox="0 0 14 32" fill="none" xmlns="http://www.w3.org/2000/svg">
<path d="M0 10.5C0 7.332 3.147 4 7 4C10.853 4 14 7.332 14 10.5C14 10.7013 13.9733 10.8857 13.947 11.0676C13.9355 11.1468 13.9241 11.2255 13.915 11.305C13.884 11.561 13.841 11.775 13.788 12.012C12.698 12.472 10.384 13 7 13C3.616 13 1.302 12.472 0.212 12.012C0.159 11.775 0.116 11.561 0.085 11.305C0.0758989 11.2255 0.064497 11.1468 0.0530279 11.0676C0.0266912 10.8857 0 10.7013 0 10.5Z" fill="white"/>
<path d="M0.5732 13.208C0.910993 14.0956 1.35789 14.7655 1.77955 15.3976C2.31656 16.2027 2.81263 16.9463 2.9902 18C3.1282 18.819 3.2452 19.963 3.1672 20.801C3.1182 21.334 3.5232 21.802 4.0562 21.856C4.9212 21.945 5.9022 22 7.0002 22C8.0972 22 9.0792 21.945 9.9432 21.856C10.4762 21.802 10.8822 21.334 10.8332 20.801C10.7552 19.963 10.8722 18.819 11.0102 18C11.1878 16.9463 11.6838 16.2027 12.2209 15.3976C12.6425 14.7655 13.0894 14.0956 13.4272 13.208C11.5402 13.805 8.7882 14 7.0002 14C5.2122 14 2.4602 13.805 0.5732 13.208Z" fill="white"/>
<path d="M4 22.8623L4.501 25.9703C4.527 26.1883 4.633 26.3903 4.801 26.5433L5.268 26.9673C5.299 26.9963 5.328 27.0273 5.355 27.0593L5.849 27.6423C6.039 27.8683 6.328 28.0003 6.635 28.0003H7.365C7.672 28.0003 7.961 27.8683 8.151 27.6423L8.645 27.0593C8.672 27.0273 8.701 26.9963 8.732 26.9673L9.199 26.5433C9.367 26.3903 9.473 26.1883 9.499 25.9703L10 22.8623C8.959 22.9633 7.813 23.0003 7 23.0003C6.187 23.0003 5.041 22.9633 4 22.8623Z" fill="white"/>
</svg>
