<svg width="29" height="32" viewBox="0 0 29 32" fill="none" xmlns="http://www.w3.org/2000/svg">
<path fill-rule="evenodd" clip-rule="evenodd" d="M27.0036 23.529C26.3526 25.333 25.0146 26.516 24.0176 26.173C23.0196 25.828 22.7386 24.088 23.3906 22.283C24.0426 20.479 25.3796 19.297 26.3776 19.64C27.3746 19.984 27.6556 21.725 27.0036 23.529ZM3.83069 21.075C3.19469 21.296 2.34169 20.535 1.92469 19.376C1.50769 18.217 1.68569 17.097 2.32169 16.877C2.95769 16.656 3.81169 17.418 4.22869 18.577C4.64569 19.736 4.46769 20.854 3.83069 21.075ZM27.5348 18.316L17.9998 15.194V9.758C19.3048 9.626 20.5288 9.443 21.5948 9.203C23.5368 8.762 24.6398 8.216 24.9248 7.653C24.9778 7.559 24.9998 7.46 24.9998 7.36V6.642C24.9998 6.543 24.9778 6.449 24.9248 6.349C24.6328 5.762 23.4408 5.199 21.3778 4.753C16.7198 3.749 9.2648 3.749 4.6148 4.753C2.5528 5.199 1.3668 5.762 1.0748 6.349C1.0228 6.449 0.999799 6.543 0.999799 6.642V7.36C0.999799 7.46 1.0228 7.559 1.0748 7.653C1.3598 8.216 2.4628 8.762 4.4118 9.203C5.4758 9.442 6.6978 9.625 7.9998 9.757V13.233L1.0988 15.551C-0.0222006 15.939 -0.337201 17.907 0.394799 19.945C1.1268 21.984 2.6298 23.321 3.7508 22.932L11.2748 19.467C12.1258 19.135 12.2448 17.453 11.5398 15.709C11.1688 14.789 10.5888 14.017 9.9998 13.533V9.913C11.9678 10.024 14.0318 10.025 15.9998 9.914V15.449C15.1048 16.037 14.1788 17.156 13.6128 18.522C12.6738 20.789 12.8318 22.976 13.9668 23.408L23.9988 27.913C25.4938 28.418 27.4968 26.679 28.4738 24.029C29.4498 21.38 29.0288 18.822 27.5348 18.316Z" fill="white"/>
</svg>
