<svg width="14" height="32" viewBox="0 0 14 32" fill="none" xmlns="http://www.w3.org/2000/svg">
<path d="M10 26L9.49646 28.4183C9.46478 28.6236 9.32805 28.8263 9.11463 28.9761L8.7253 29.2498L8.27845 29.6559C8.04002 29.8748 7.68487 30 7.30471 30H6.69529C6.31513 30 5.95998 29.8748 5.72155 29.6553L5.30971 29.2789L4.88537 28.9761C4.67111 28.8263 4.53522 28.6236 4.50104 28.4061L4 26L4.53689 26.0394C5.27136 26.0943 6.19175 26.1265 6.99958 26.1265C7.80742 26.1265 8.72864 26.0943 9.46311 26.0394L10 26ZM3.44103 22.6545C4.0496 22.8225 4.9072 22.9429 6.07084 22.9843L6.67725 22.9982L7 23C8.58389 23 9.74771 22.9047 10.5549 22.6746L10.169 24.985L9.38996 25.0421C8.6825 25.0949 7.7864 25.1265 6.99958 25.1265C6.21296 25.1265 5.31767 25.0949 4.61139 25.0422L3.831 24.985L3.44103 22.6545ZM8.24801 2.00045L8.5248 2.02526L8.73074 2.05085L8.9815 2.08869L9.27067 2.14099L9.59187 2.20994L9.93869 2.29776C11.0112 2.59171 12.3432 3.17001 13.1575 4.30024C14.0482 5.53507 14.0686 6.72409 13.9464 7.47923L13.9013 7.71434L10.8 21.5C10.362 21.7738 9.42931 21.9351 8.002 21.984L8 13.5004L10 11.5004H4L6 13.5004V21.979L5.94559 21.9772L5.49516 21.9511C5.42416 21.946 5.35517 21.9407 5.28815 21.935L4.90913 21.898L4.57491 21.8558C4.52282 21.8484 4.47249 21.8409 4.42389 21.8332L4.15263 21.7862C4.11074 21.7782 4.07049 21.7701 4.03182 21.7621L3.72531 21.69L3.56473 21.6442L3.38389 21.5827L3.22375 21.5131L3.2 21.5L0.0924987 7.71434L0.0479259 7.47923C-0.0706331 6.72409 -0.0273696 5.53507 0.863344 4.30024C1.7422 3.08136 3.22242 2.50439 4.32976 2.23372L4.6498 2.16137L4.94162 2.10538L5.19938 2.06375L5.50936 2.0238L5.78102 2L8.24801 2.00045Z" fill="white"/>
</svg>
