<svg width="24" height="32" viewBox="0 0 24 32" fill="none" xmlns="http://www.w3.org/2000/svg">
<path d="M15 24L14.4965 26.4183C14.4648 26.6236 14.3281 26.8263 14.1146 26.9761L13.7253 27.2498L13.2785 27.6559C13.0741 27.8435 12.784 27.9623 12.4658 27.9924L12.3047 28H11.6953C11.3151 28 10.96 27.8748 10.7216 27.6553L10.3097 27.2789L9.88537 26.9761C9.67111 26.8263 9.53522 26.6236 9.50104 26.4061L9 24L9.53689 24.0394C10.2714 24.0943 11.1917 24.1265 11.9996 24.1265C12.8074 24.1265 13.7286 24.0943 14.4631 24.0394L15 24ZM15.558 20.6604L15.1684 22.9844L14.39 23.0421C13.6825 23.0949 12.7864 23.1265 11.9996 23.1265C11.213 23.1265 10.3177 23.0949 9.61139 23.0422L8.83044 22.9844L8.44406 20.6609C9.57131 20.8812 10.764 21 12 21C13.2367 21 14.4302 20.881 15.558 20.6604ZM12 4C18.6582 4 24 7.62609 24 12C24 16.152 19.1849 19.6309 13.0004 19.9725L13 13.5004L15 11.5004H9L11 13.5004L11.0009 19.9726C5.03465 19.6435 0.342574 16.3946 0.0179415 12.4382L0.00458431 12.2217L0 12L0.00458384 11.7783C0.181455 7.50422 5.45462 4 12 4Z" fill="white"/>
</svg>
