<svg width="14" height="32" viewBox="0 0 14 32" fill="none" xmlns="http://www.w3.org/2000/svg">
<path fill-rule="evenodd" clip-rule="evenodd" d="M3.419 2.3025C5.383 1.8995 8.611 1.8995 10.578 2.3025C12.518 2.6995 12.458 3.3325 10.493 3.7165C8.556 4.0945 5.45 4.0945 3.511 3.7165C1.544 3.3325 1.482 2.6995 3.419 2.3025ZM11.892 12.4315C13.095 12.0945 13.785 11.6685 13.956 11.2265C13.987 11.1505 14 11.0795 14 11.0045V1.9925C14 1.9175 13.987 1.8425 13.956 1.7715C13.79 1.3455 13.147 0.9335 12.01 0.6015C9.258 -0.2005 4.738 -0.2005 1.986 0.6015C0.854 0.9335 0.21 1.3455 0.044 1.7715C0.013 1.8425 0 1.9175 0 1.9925V11.0045C0 11.0795 0.013 11.1505 0.044 11.2265C0.215 11.6685 0.91 12.0945 2.113 12.4315C3.213 12.7385 4.582 12.9135 6 12.9725V27.0235C3.073 27.1365 0.721 27.7315 0.14 28.4995C0.047 28.6195 0 28.7465 0 28.8745V30.1245C0 31.1595 3.135 31.9995 7 31.9995C10.865 31.9995 14 31.1595 14 30.1245V28.8745C14 27.9315 11.391 27.1515 8 27.0215V12.9725C9.42 12.9145 10.791 12.7395 11.892 12.4315Z" fill="white"/>
</svg>
