<svg width="18" height="32" viewBox="0 0 18 32" fill="none" xmlns="http://www.w3.org/2000/svg">
<path fill-rule="evenodd" clip-rule="evenodd" d="M11.5233 13.383C10.0903 12.88 7.90928 12.88 6.47728 13.383L5.26528 4.766C7.63728 5.067 10.3633 5.067 12.7343 4.767L11.5233 13.383ZM15.4403 0.756C11.8993 -0.252 6.08928 -0.252 2.55328 0.756C-0.933719 1.75 -0.820719 3.332 2.71828 4.291C2.86728 4.331 3.03828 4.36 3.19328 4.397L4.76528 15.572C4.88328 16.009 5.54228 16.53 7.00028 16.811V29.151C6.02528 29.31 5.30928 29.58 5.08028 29.901C5.02628 29.972 5.00028 30.049 5.00028 30.125V30.875C5.00028 31.496 6.79128 32 9.00028 32C11.2093 32 13.0003 31.496 13.0003 30.875V30.125C13.0003 29.71 12.1903 29.352 11.0003 29.156V16.812C12.4523 16.53 13.0833 16.008 13.2343 15.574L14.8063 4.398C14.9633 4.361 15.1373 4.331 15.2883 4.291C18.8243 3.332 18.9313 1.75 15.4403 0.756Z" fill="white"/>
</svg>
