<svg width="18" height="32" viewBox="0 0 18 32" fill="none" xmlns="http://www.w3.org/2000/svg">
<path d="M18 6.653C18 5.188 13.97 4 9 4C4.65 4 1.01 4.912 0.18 6.122C0.06 6.292 0 6.472 0 6.653V7.604C0 7.956 0.063 8.301 0.181 8.628C1.446 9.278 4.458 10 9 10C13.542 10 16.554 9.278 17.819 8.628C17.938 8.302 18 7.956 18 7.604V6.653Z" fill="white"/>
<path d="M1.1699 10.0847L4.7889 14.3627C5.1389 14.7747 5.3369 15.2937 5.3549 15.8337L5.4979 20.9477C5.5139 21.4647 5.9199 21.8807 6.4369 21.9157C7.2269 21.9687 8.0799 21.9997 8.9999 21.9997C9.9199 21.9997 10.7739 21.9687 11.5639 21.9157C12.0799 21.8807 12.4859 21.4647 12.5019 20.9477L12.6459 15.8337C12.6629 15.2937 12.8609 14.7747 13.2109 14.3627L16.8299 10.0847C14.7799 10.7047 11.8299 10.9997 8.9999 10.9997C6.1699 10.9997 3.2199 10.7047 1.1699 10.0847Z" fill="white"/>
<path d="M6.501 25.97L6 22.862C7.041 22.963 8.187 23 9 23C9.813 23 10.959 22.963 12 22.862L11.499 25.97C11.473 26.188 11.367 26.39 11.199 26.543L10.732 26.967C10.701 26.996 10.672 27.027 10.645 27.059L10.151 27.642C9.961 27.868 9.672 28 9.365 28H8.635C8.328 28 8.039 27.868 7.849 27.642L7.355 27.059C7.328 27.027 7.299 26.996 7.268 26.967L6.801 26.543C6.633 26.39 6.527 26.188 6.501 25.97Z" fill="white"/>
</svg>
