<svg width="19" height="32" viewBox="0 0 19 32" fill="none" xmlns="http://www.w3.org/2000/svg">
<path fill-rule="evenodd" clip-rule="evenodd" d="M15.7486 14.2865C14.5556 14.7075 12.9546 13.2575 12.1746 11.0465C11.3946 8.83553 11.7296 6.70153 12.9246 6.28053C14.1176 5.85853 15.7186 7.30853 16.4986 9.51953C17.2786 11.7305 16.9426 13.8645 15.7486 14.2865ZM18.3716 8.85553C17.2056 5.61553 14.8136 3.48953 13.0286 4.10653L1.15365 9.62853C-0.200353 10.1555 -0.390353 12.8295 0.731647 15.6015C1.85265 18.3745 4.16065 20.3505 5.51565 19.8235L7.00365 19.2775V23.0235C4.07665 23.1375 1.72565 23.7315 1.14465 24.5005C1.05165 24.6205 1.00465 24.7475 1.00465 24.8755V26.1255C1.00465 27.1605 4.13865 28.0005 8.00265 28.0005C11.8676 28.0005 15.0006 27.1605 15.0006 26.1255V24.8755C15.0006 23.9325 12.3926 23.1515 9.00265 23.0215V18.6065L17.2506 15.8415C19.0356 15.2235 19.5366 12.0955 18.3716 8.85553Z" fill="white"/>
</svg>
