<svg width="24" height="32" viewBox="0 0 24 32" fill="none" xmlns="http://www.w3.org/2000/svg">
<path fill-rule="evenodd" clip-rule="evenodd" d="M21.5964 18.3263C20.0614 17.8293 17.8044 16.3523 14.7424 13.2893C12.2864 10.8353 10.3594 8.12426 9.73537 6.45926C9.60037 6.09926 9.92337 5.73226 10.3004 5.80526C10.6874 5.88026 11.2164 6.04226 11.9034 6.36226C13.7514 7.22226 15.4494 8.34026 17.5704 10.4613C19.6914 12.5823 20.8084 14.2793 21.6684 16.1283C21.9954 16.8293 22.1584 17.3653 22.2304 17.7553C22.2984 18.1233 21.9524 18.4413 21.5964 18.3263ZM18.0384 22.5103C17.9704 22.7213 17.7744 22.8553 17.5634 22.8553C17.5124 22.8553 17.4604 22.8473 17.4094 22.8313C16.0354 22.3873 14.3244 21.2743 12.3834 19.5783C10.0864 20.8373 6.33137 22.3273 6.42837 22.9693C6.61437 24.1963 5.87837 24.8753 4.49237 23.4893C3.10737 22.1033 3.78537 21.3683 5.01437 21.5543C5.65837 21.6513 7.15537 17.8473 8.42037 15.5553C6.91137 13.7593 5.71737 11.9543 5.23437 10.6643C5.13637 10.4053 5.26837 10.1173 5.52637 10.0203C5.78237 9.92026 6.07237 10.0543 6.16937 10.3123C6.80137 11.9973 8.76737 14.6713 11.0624 16.9663C14.4344 20.3383 16.5424 21.4993 17.7174 21.8803C17.9804 21.9653 18.1234 22.2473 18.0384 22.5103ZM23.2474 15.7313C21.3284 11.6093 16.4094 6.65426 12.3354 4.73926C10.6744 3.95926 9.43537 3.82226 8.68337 4.20726C8.59037 4.26526 8.49937 4.33026 8.40837 4.39026C7.40137 5.05526 6.42637 5.82626 5.52137 6.73026C-0.119628 12.3603 -2.34663 19.2643 3.21737 24.8193C8.70837 30.3023 15.6984 28.1503 21.3374 22.5193C22.2294 21.6303 22.9914 20.6743 23.6494 19.6853C23.6904 19.6243 23.7324 19.5633 23.7724 19.5023C24.1854 18.7423 24.0514 17.4583 23.2474 15.7313Z" fill="white"/>
</svg>
