<svg width="16" height="32" viewBox="0 0 16 32" fill="none" xmlns="http://www.w3.org/2000/svg">
<path fill-rule="evenodd" clip-rule="evenodd" d="M6.5 0C8.34764 0 9.86535 0.517806 9.99152 1.17177L10 1.25L10.0009 22.3314C13.3428 22.6424 15.8449 23.7134 15.9931 24.9994L16 25V29.1202C16 30.1668 14.4409 31.0849 12.115 31.5892L11.6231 31.6875C10.5347 31.8874 9.30325 32.0002 8 32.0002C6.69675 32.0002 5.46526 31.8874 4.37688 31.6875L3.88497 31.5892C1.55906 31.0849 0 30.1668 0 29.1202C0 29.0792 0.00239764 29.039 0.00714514 28.9996L0 29V25C0.102814 24.1411 1.25252 23.3783 2.99986 22.8735L3.001 1.25L3.0069 1.18041C3.1213 0.522374 4.64423 0 6.5 0ZM9 4H5L4.99971 24.7585C5.45464 24.8365 5.96341 24.8803 6.5 24.8803C7.47911 24.8803 8.36558 24.7346 9.0014 24.5005L9 4Z" fill="white"/>
</svg>
