<svg width="24" height="32" viewBox="0 0 24 32" fill="none" xmlns="http://www.w3.org/2000/svg">
<path fill-rule="evenodd" clip-rule="evenodd" d="M4.4395 16.668C4.9795 16.552 5.5115 16.895 5.6285 17.435C5.7455 17.974 5.4025 18.506 4.8625 18.623C4.3225 18.74 3.7905 18.397 3.6735 17.857C3.5565 17.317 3.9005 16.785 4.4395 16.668ZM9.3275 15.611C9.8665 15.495 10.3985 15.838 10.5155 16.377C10.6325 16.917 10.2895 17.449 9.7505 17.566C9.2105 17.683 8.6775 17.34 8.5605 16.8C8.4445 16.261 8.7875 15.729 9.3275 15.611ZM14.2135 14.555C14.7535 14.438 15.2865 14.781 15.4025 15.32C15.5195 15.86 15.1765 16.393 14.6365 16.51C14.0965 16.626 13.5645 16.283 13.4485 15.743C13.3315 15.203 13.6735 14.671 14.2135 14.555ZM19.1005 13.498C19.6405 13.381 20.1725 13.724 20.2905 14.264C20.4065 14.804 20.0635 15.336 19.5235 15.453C18.9835 15.569 18.4515 15.227 18.3355 14.687C18.2175 14.147 18.5615 13.614 19.1005 13.498ZM6.6695 20.639L21.4735 17.444C22.5535 17.211 23.2405 16.147 23.0065 15.067C22.4495 12.484 19.9035 10.842 17.3205 11.399L2.5165 14.594C1.4365 14.827 0.7505 15.891 0.9835 16.971C1.5415 19.554 4.0865 21.196 6.6695 20.639ZM21 26C20.447 26 20 25.553 20 25C20 24.447 20.447 24 21 24C21.553 24 22 24.447 22 25C22 25.553 21.553 26 21 26ZM16 26C15.447 26 15 25.553 15 25C15 24.447 15.447 24 16 24C16.553 24 17 24.447 17 25C17 25.553 16.553 26 16 26ZM11 26C10.447 26 10 25.553 10 25C10 24.447 10.447 24 11 24C11.553 24 12 24.447 12 25C12 25.553 11.553 26 11 26ZM6 26C5.447 26 5 25.553 5 25C5 24.447 5.447 24 6 24C6.553 24 7 24.447 7 25C7 25.553 6.553 26 6 26ZM23 22H5C1 22 0 19 0 18V23C0 25.762 2.238 28 5 28H23C23.553 28 24 27.553 24 27V23C24 22.447 23.553 22 23 22ZM18 8C17.447 8 17 7.553 17 7C17 6.447 17.447 6 18 6C18.553 6 19 6.447 19 7C19 7.553 18.553 8 18 8ZM13 8C12.447 8 12 7.553 12 7C12 6.447 12.447 6 13 6C13.553 6 14 6.447 14 7C14 7.553 13.553 8 13 8ZM8 8C7.447 8 7 7.553 7 7C7 6.447 7.447 6 8 6C8.553 6 9 6.447 9 7C9 7.553 8.553 8 8 8ZM3 8C2.447 8 2 7.553 2 7C2 6.447 2.447 6 3 6C3.553 6 4 6.447 4 7C4 7.553 3.553 8 3 8ZM19 4H1C0.447 4 0 4.447 0 5V9C0 9.553 0.447 10 1 10H19C23 10 24 13 24 14V9C24 6.238 21.762 4 19 4Z" fill="white"/>
</svg>
