<svg width="32" height="32" viewBox="0 0 32 32" fill="none" xmlns="http://www.w3.org/2000/svg">
<path fill-rule="evenodd" clip-rule="evenodd" d="M24.4595 17.0158C25.3295 16.6828 26.8105 17.9278 27.5305 19.6708C28.2228 21.3477 28.1376 22.9682 27.3557 23.3855L19.5695 26.8938C18.4235 27.2828 16.8885 25.9458 16.1405 23.9068C15.4173 21.939 15.6935 20.0366 16.744 19.5585L16.8595 19.5128L24.4595 17.0158ZM20.0575 22.5388C19.6315 21.3788 18.7595 20.6178 18.1095 20.8388C17.4595 21.0588 17.2775 22.1788 17.7045 23.3378C18.1305 24.4968 19.0025 25.2578 19.6525 25.0368C20.3025 24.8158 20.4845 23.6978 20.0575 22.5388ZM7.669 5.06316C7.8402 4.99916 8.02484 4.9838 8.20346 5.01708L8.336 5.05116L31.317 12.7112C31.6879 12.8348 31.9489 13.1617 31.9933 13.544L32 13.6602V19.2742C32 19.6495 31.7902 19.9891 31.4639 20.1597L31.351 20.2102L29.909 20.7502C29.812 20.1522 29.637 19.5322 29.379 18.9082C28.595 17.0072 26.816 14.9612 24.765 14.9612C24.4986 14.9612 24.2392 14.9964 23.9895 15.0662L23.804 15.1252L16.236 17.6132C15.355 17.9122 14.645 18.5642 14.218 19.4572L14.13 19.6762L0.684 15.1952C0.313091 15.0706 0.0512727 14.7436 0.00673479 14.3621L0 14.2462V8.63216C0 8.25686 0.20979 7.9172 0.536058 7.74658L0.649 7.69616L7.669 5.06316ZM7.786 11.5692C7.6124 11.5116 7.42664 11.502 7.24971 11.5424L7.119 11.5822L3.195 13.0532C2.9565 13.1423 2.93832 13.4565 3.13244 13.5841L3.205 13.6192L13.251 17.1692C13.4246 17.2276 13.6097 17.2367 13.7869 17.197L13.918 17.1582L17.842 15.6862C18.0805 15.5962 18.0987 15.2818 17.9038 15.1557L17.831 15.1212L7.786 11.5692Z" fill="white"/>
</svg>
