<svg width="24" height="32" viewBox="0 0 24 32" fill="none" xmlns="http://www.w3.org/2000/svg">
<path fill-rule="evenodd" clip-rule="evenodd" d="M21.6928 24.5571C19.6457 23.6311 15.2447 21.0341 11.1665 16.9531C6.95836 12.7441 4.28354 8.31912 3.45691 6.32712C3.29598 5.93912 3.63783 5.54212 4.04564 5.64412C4.61439 5.78512 5.37106 6.05812 6.32664 6.57712C11.6473 9.45812 18.5862 16.3801 21.4789 21.6931C21.9877 22.6261 22.2526 23.4031 22.3815 24.0051C22.4675 24.3991 22.0587 24.7231 21.6928 24.5571ZM22.7963 20.9751C19.7487 15.3791 12.6448 8.29312 7.04132 5.25712C5.34207 4.33712 3.99567 4.00012 3.0251 4.00012C3.0251 4.00012 2.40937 3.98912 1.93558 4.18112C0.693128 4.71712 0.0114296 6.18812 0.0114296 9.41512C0.0114296 13.3511 1.6507 17.1881 4.20058 20.3441L0.175357 26.4151C-0.277443 27.0801 0.199346 27.9811 1.00299 27.9791L7.60307 27.9561C8.26978 27.9541 8.8915 27.6201 9.26034 27.0661L10.2649 25.5581C12.9147 27.0961 15.8154 28.0001 18.6382 28.0001C21.0401 28.0001 22.5794 27.4211 23.574 26.4111C24.1587 25.8641 24.3417 23.8161 22.7963 20.9751Z" fill="white"/>
</svg>
