<svg width="32" height="32" viewBox="0 0 32 32" fill="none" xmlns="http://www.w3.org/2000/svg">
<path fill-rule="evenodd" clip-rule="evenodd" d="M29.85 18.441C27.583 19.562 25.355 18.729 23.865 18.142C22.633 17.657 2.062 9.175 2.062 9.175C2.062 9.175 0.164 8.328 2.236 7.575C4.792 6.645 6.855 7.417 9.241 8.375C10.744 8.979 29.303 16.43 29.303 16.43C29.303 16.43 32.117 17.32 29.85 18.441ZM31.997 17.494C31.979 16.978 31.712 16.061 30.19 15.435L8.237 6.621C7.308 6.239 5.849 6 4.436 6C3.707 6 2.663 6.067 1.826 6.389C0.35 6.957 0.052 7.802 0.016 8.309L0.008 8.307L0 14.366L0.006 14.367C0.036 14.854 0.3 15.628 1.561 16.167L24.1 25.437C24.946 25.797 26.062 26 27.233 26C28.407 26 29.514 25.795 30.35 25.426C31.793 24.788 31.998 23.866 31.993 23.373L32 17.495L31.997 17.494Z" fill="white"/>
</svg>
