<svg width="24" height="32" viewBox="0 0 24 32" fill="none" xmlns="http://www.w3.org/2000/svg">
<path fill-rule="evenodd" clip-rule="evenodd" d="M18.869 21.0121C15.01 18.2851 9.734 13.0071 7.007 9.14205C4.24 5.22405 5.082 4.16705 8.97 6.86505C12.912 9.60005 18.395 15.0871 21.132 19.0351C23.831 22.9291 22.781 23.7771 18.869 21.0121ZM22.5 18.6891C19.719 14.1411 13.855 8.27405 9.315 5.49405C7.162 4.17705 5.67 3.73605 4.97 4.15005C1.984 6.57405 0 10.6231 0 14.7711C0 18.8931 1.885 22.5741 4.838 24.9991H4.5C3.675 24.9991 3 25.674 3 26.4991C3 27.3241 3.675 27.9991 4.5 27.9991H12.371C12.468 27.9991 12.561 27.989 12.652 27.9711C12.842 27.979 13.028 27.9991 13.219 27.9991C17.309 27.9991 21.427 25.9641 23.851 23.0441C24.264 22.3411 23.819 20.8451 22.5 18.6891Z" fill="white"/>
</svg>
