<svg width="32" height="32" viewBox="0 0 32 32" fill="none" xmlns="http://www.w3.org/2000/svg">
<path fill-rule="evenodd" clip-rule="evenodd" d="M27.9958 12.8557L22.9998 14.6697L21.9958 15.0357L8.99976 19.7567V18.6447C8.99976 17.2387 8.02876 15.7147 6.72376 14.9147L22.0158 9.35867L25.7318 8.00767C27.0308 8.81067 27.9958 10.3297 27.9958 11.7307V12.8557ZM28.9998 6.18267C28.3478 5.94567 27.7558 5.95267 27.2648 6.12667L27.2628 6.12267L24.3938 7.16467C24.3218 7.18367 24.2568 7.21167 24.1888 7.23867L6.10076 13.8107L4.33276 14.4537C4.32276 14.4567 4.31376 14.4597 4.30376 14.4637H4.30276L1.32376 15.5467H1.32276H1.32176L1.18976 15.5947V15.6077C0.470756 15.8947 -0.000244141 16.5797 -0.000244141 17.5527V23.5527L5.99976 25.7367L8.99976 24.6447V21.7567L25.0448 15.9277L28.9998 17.3677V17.3537L31.9668 16.2747L31.9998 16.2867V16.2757V10.2867V10.2757C31.9998 8.61868 30.6568 6.78667 28.9998 6.18267Z" fill="white"/>
</svg>
