<svg width="20" height="32" viewBox="0 0 20 32" fill="none" xmlns="http://www.w3.org/2000/svg">
<path d="M13 26L12.4965 28.4183C12.4648 28.6236 12.3281 28.8263 12.1146 28.9761L11.7253 29.2498L11.2785 29.6559C11.04 29.8748 10.6849 30 10.3047 30H9.69529C9.31513 30 8.95998 29.8748 8.72155 29.6553L8.30971 29.2789L7.88537 28.9761C7.67111 28.8263 7.53522 28.6236 7.50104 28.4061L7 26L7.53689 26.0394C8.27136 26.0943 9.19175 26.1265 9.99958 26.1265C10.8074 26.1265 11.7286 26.0943 12.4631 26.0394L13 26ZM6.39833 22.3967C7.52679 22.7876 8.73862 23 10 23C11.2606 23 12.4718 22.7879 13.5997 22.3974L13.169 24.985L12.39 25.0421C11.6825 25.0949 10.7864 25.1265 9.99958 25.1265C9.21296 25.1265 8.31767 25.0949 7.61139 25.0422L6.831 24.985L6.39833 22.3967ZM10 2C15.5228 2 20 6.47724 20 12C20 17.1842 16.0535 21.4482 11.001 21.9505L11 14.5004L13 12.5004H7L9 14.5004L8.99998 21.9506C4.12848 21.4668 0.284871 17.4859 0.0151348 12.5548L0.00384235 12.2799L0 12L0.00384188 11.7201C0.152071 6.32676 4.57085 2 10 2Z" fill="white"/>
</svg>
