<svg width="14" height="32" viewBox="0 0 14 32" fill="none" xmlns="http://www.w3.org/2000/svg">
<path fill-rule="evenodd" clip-rule="evenodd" d="M12.625 5.99405C11.6454 5.00198 9.6362 4 7.62701 4H6.62741L6.35495 4.00606C4.44939 4.09019 2.59268 5.03716 1.61943 5.98413C0.205927 7.39543 0.0254725 9.28186 0.00302773 10.4231L0 10.9444C2.21919 11.4405 5.11802 11.5 6.99726 11.5C8.82653 11.5 11.8053 11.4107 13.9944 10.9444C13.9944 10.864 13.9956 10.7738 13.9968 10.675C14.0108 9.56726 14.0383 7.38762 12.625 5.99405ZM14 12C14 15.7081 11.1726 18.8748 10.1944 19.9705C10.1174 20.0567 10.0518 20.1302 10 20.19C8.98462 20.4285 8.13491 20.4835 7.50551 20.4962L6.6991 20.4983C6.08305 20.4903 4.84824 20.4453 4 20.19L3.38168 19.4893C2.18954 18.107 0 15.2632 0 12C2.18 12.47 5.18 12.56 7 12.57L7.73391 12.5648C9.55719 12.5392 12.0925 12.4113 14 12ZM10.0001 21L9.50175 25.23C9.47783 25.47 9.40925 25.6908 9.29603 25.877L9.20274 26.01L8.68945 26.6462L8.6446 26.71L8.15623 27.51C7.99053 27.7812 7.74853 27.953 7.48363 27.9917L7.36885 28H6.63131C6.36096 28 6.10588 27.8622 5.91947 27.6201L5.84394 27.51L5.35557 26.71L5.26587 26.59L4.79743 26.01C4.66188 25.842 4.57098 25.6356 4.52474 25.4062L4.49842 25.23L4.00008 21C5.0466 21.14 6.20274 21.19 7.01005 21.19C7.72766 21.19 8.71302 21.1505 9.65112 21.0434L10.0001 21Z" fill="white"/>
</svg>
