<svg width="24" height="32" viewBox="0 0 24 32" fill="none" xmlns="http://www.w3.org/2000/svg">
<path fill-rule="evenodd" clip-rule="evenodd" d="M23.872 1.38398C23.474 0.292977 22.265 -0.269023 21.173 0.127977L1.386 7.31298C0.294004 7.71098 -0.270996 8.91598 0.128004 10.006C0.438004 10.859 1.246 11.389 2.106 11.389C2.345 11.389 2.588 11.349 2.826 11.262L11 8.29298V11.041C8.636 11.3 7.114 12.391 7.114 13.922V29.037C7.114 30.797 9.124 31.979 12.114 31.979C15.104 31.979 17.114 30.796 17.114 29.037V13.923C17.114 12.345 15.491 11.239 13 11.026V7.56698L22.613 4.07598C23.706 3.67998 24.27 2.47498 23.872 1.38398V1.38398ZM15.614 29.037C15.614 29.833 14.047 30.479 12.114 30.479C10.181 30.479 8.614 29.833 8.614 29.037C8.614 28.241 10.181 27.595 12.114 27.595C14.047 27.595 15.614 28.241 15.614 29.037Z" fill="white"/>
</svg>
