<svg width="32" height="32" viewBox="0 0 32 32" fill="none" xmlns="http://www.w3.org/2000/svg">
<path fill-rule="evenodd" clip-rule="evenodd" d="M28.245 16.159L8.378 22.829C8.16 22.902 7.925 22.897 7.71 22.816L3.786 21.334C3.521 21.234 3.528 20.854 3.797 20.764L23.664 14.095C23.882 14.021 24.117 14.026 24.331 14.107L28.256 15.589C28.52 15.689 28.514 16.068 28.245 16.159ZM31.351 10.716L24.331 8.064C24.117 7.983 23.882 7.978 23.664 8.052L17 10.289V4.749V4.469C17 4.21 16.553 4 16 4C15.447 4 15 4.21 15 4.469V4.749V10.961L0.683 15.766C0.275 15.904 0 16.289 0 16.722V21.342C0 21.762 0.259 22.137 0.648 22.284L7.669 24.935C7.883 25.016 8.118 25.021 8.336 24.948L31.316 17.233C31.724 17.096 32 16.711 32 16.277V11.658C32 11.238 31.741 10.863 31.351 10.716Z" fill="white"/>
</svg>
