<svg width="24" height="32" viewBox="0 0 24 32" fill="none" xmlns="http://www.w3.org/2000/svg">
<path fill-rule="evenodd" clip-rule="evenodd" d="M19.1635 22.244C15.2335 23.252 8.77847 23.252 4.84547 22.244C0.966472 21.25 1.08547 19.668 5.01447 18.709C8.88947 17.764 15.1005 17.764 18.9785 18.709C22.9125 19.668 23.0385 21.25 19.1635 22.244ZM23.925 14.002C23.633 13.252 22.44 12.532 20.378 11.962C18.308 11.391 15.684 11.076 13 11.014V6.469C13 6.21 12.553 6 12 6C11.447 6 11 6.21 11 6.469V11.014C8.312 11.076 5.685 11.39 3.615 11.962C1.553 12.532 0.367 13.252 0.075 14.002C0.022 14.129 0 14.249 0 14.377V21.627C0 21.754 0.022 21.882 0.075 22.002C0.36 22.722 1.463 23.419 3.412 23.981C8.13 25.34 15.878 25.34 20.595 23.981C22.537 23.419 23.64 22.722 23.925 22.002C23.977 21.882 24 21.754 24 21.627V14.377C24 14.249 23.977 14.129 23.925 14.002Z" fill="white"/>
</svg>
