<svg width="24" height="32" viewBox="0 0 24 32" fill="none" xmlns="http://www.w3.org/2000/svg">
<path fill-rule="evenodd" clip-rule="evenodd" d="M3.62707 13.5599C8.27468 11.4789 15.7239 11.4789 20.3775 13.5599C25.0931 15.6689 25.245 19.15 20.5974 21.337C15.8858 23.555 8.14175 23.555 3.42417 21.337C-1.22744 19.15 -1.08552 15.6689 3.62707 13.5599ZM18.2845 16.709C14.7943 15.764 9.2082 15.764 5.72199 16.709L5.32191 16.8246C5.12979 16.8838 4.94956 16.9449 4.78124 17.0078L4.46051 17.1359C2.2252 18.0911 2.55877 19.3864 5.56907 20.2439C9.10826 21.2519 14.9153 21.2519 18.4495 20.2439C21.798 19.2889 21.8251 17.7911 18.6849 16.8246L18.2845 16.709ZM3.60428 10.5188C8.25889 8.49375 15.7141 8.49375 20.3737 10.5188C22.8494 11.5948 24.0558 13.0387 23.9848 14.4757C23.2992 13.8687 22.3966 13.2728 21.1893 12.7338C18.6855 11.6158 15.4172 10.9998 11.987 10.9998C8.55674 10.9998 5.29041 11.6158 2.7877 12.7338C1.58631 13.2708 0.685776 13.8657 0.00312602 14.4707C-0.0698365 13.0347 1.13455 11.5938 3.60428 10.5188Z" fill="white"/>
</svg>
