<svg width="24" height="32" viewBox="0 0 24 32" fill="none" xmlns="http://www.w3.org/2000/svg">
<path fill-rule="evenodd" clip-rule="evenodd" d="M20.3729 18.4405C15.7253 20.5215 8.27614 20.5215 3.62253 18.4405C-1.09305 16.3315 -1.24498 12.8505 3.40264 10.6635C8.11422 8.4455 15.8582 8.4455 20.5758 10.6635C25.2274 12.8505 25.0855 16.3315 20.3729 18.4405ZM5.71545 15.2915C9.20566 16.2365 14.7918 16.2365 18.278 15.2915L18.482 15.2344L18.8662 15.116C21.1994 14.35 21.6237 13.2776 20.0699 12.3999L19.8081 12.263C19.5762 12.1504 19.31 12.0416 19.0094 11.9378L18.632 11.8156C18.5664 11.7957 18.4993 11.776 18.4309 11.7565C14.8917 10.7485 9.08472 10.7485 5.55054 11.7565L5.34967 11.8156L4.97282 11.9378C2.27061 12.8722 2.36177 14.2089 5.12682 15.116L5.51133 15.2344C5.57806 15.2537 5.6461 15.2727 5.71545 15.2915ZM20.3957 21.4817C15.7411 23.5067 8.28593 23.5067 3.62632 21.4817C1.15059 20.4057 -0.0557868 18.9617 0.0151768 17.5247C0.700825 18.1317 1.60336 18.7277 2.81074 19.2667C5.31446 20.3847 8.58278 21.0007 12.013 21.0007C15.4433 21.0007 18.7096 20.3847 21.2123 19.2667C22.4137 18.7297 23.3142 18.1347 23.9969 17.5297C24.0698 18.9657 22.8655 20.4067 20.3957 21.4817Z" fill="white"/>
</svg>
