<svg width="24" height="32" viewBox="0 0 24 32" fill="none" xmlns="http://www.w3.org/2000/svg">
<path fill-rule="evenodd" clip-rule="evenodd" d="M21.512 22.4447C20.737 24.6707 19.145 26.1307 17.957 25.7057C16.77 25.2817 16.436 23.1327 17.212 20.9087C17.988 18.6827 19.579 17.2227 20.767 17.6467C21.954 18.0717 22.288 20.2187 21.512 22.4447ZM22.26 16.0828L11 12.2607V10.3758C13.255 10.3117 15.45 10.0338 17.162 9.54075C18.782 9.07175 19.7 8.49075 19.938 7.89075C19.982 7.79075 20 7.68475 20 7.57875V6.81475C20 6.70875 19.982 6.60775 19.938 6.50275C19.694 5.87775 18.7 5.27675 16.982 4.80175C13.1 3.73275 6.888 3.73275 3.013 4.80175C1.294 5.27675 0.307 5.87775 0.063 6.50275C0.019 6.60775 0 6.70875 0 6.81475V7.57875C0 7.68475 0.019 7.79075 0.063 7.89075C0.3 8.49075 1.219 9.07175 2.844 9.54075C4.556 10.0338 6.747 10.3108 9 10.3748V12.2808C7.812 12.8857 6.492 14.4227 5.728 16.3357C4.613 19.1257 4.8 21.8177 6.148 22.3487L18.062 27.8927C19.836 28.5147 22.215 26.3758 23.375 23.1138C24.534 19.8518 24.035 16.7048 22.26 16.0828Z" fill="white"/>
</svg>
