<svg width="14" height="32" viewBox="0 0 14 32" fill="none" xmlns="http://www.w3.org/2000/svg">
<path d="M10 23L9.49646 25.4183C9.46478 25.6236 9.32805 25.8263 9.11463 25.9761L8.7253 26.2498L8.27845 26.6559C8.04002 26.8748 7.68487 27 7.30471 27H6.69529C6.31513 27 5.95998 26.8748 5.72155 26.6553L5.30971 26.2789L4.88537 25.9761C4.67111 25.8263 4.53522 25.6236 4.50104 25.4061L4 23L4.53689 23.0394C5.27136 23.0943 6.19175 23.1265 6.99958 23.1265C7.80742 23.1265 8.72864 23.0943 9.46311 23.0394L10 23ZM10.6466 19.1223L10.1684 21.9843L9.38996 22.0421C8.6825 22.0949 7.7864 22.1265 6.99958 22.1265C6.21296 22.1265 5.31767 22.0949 4.61139 22.0422L3.83038 21.9843L3.35438 19.1228C4.44768 19.6836 5.68692 20 7 20C8.31348 20 9.55307 19.6834 10.6466 19.1223ZM7 5C10.8659 5 14 8.13407 14 12C14 15.5256 11.3925 18.4432 8.00093 18.929L8 13.5004L10 11.5004H4L6 13.5004L6.00007 18.9291C2.7663 18.4664 0.245149 15.793 0.0168571 12.4895L0.00405979 12.2406L0 12L0.00405884 11.7594C0.130904 8.00485 3.21461 5 7 5Z" fill="white"/>
</svg>
