<svg width="18" height="32" viewBox="0 0 18 32" fill="none" xmlns="http://www.w3.org/2000/svg">
<path d="M0.18 7.122C1.01 5.912 4.65 5 9 5C13.97 5 18 6.188 18 7.653C18 9.117 13.97 10.306 9 10.306C4.03 10.306 0 9.117 0 7.653C0 7.473 0.06 7.292 0.18 7.122Z" fill="white"/>
<path d="M4.7768 16.3809C2.3528 14.6319 1.5428 12.0059 1.2148 10.0869C3.3828 11.0069 6.6888 11.3059 8.9998 11.3059C11.3118 11.3059 14.6168 11.0069 16.7848 10.0869C16.4568 12.0059 15.6478 14.6319 13.2238 16.3809C13.0208 16.5679 12.9998 16.8809 12.9998 17.5059V21.1919C12.9998 21.6689 12.8468 22.1379 12.5338 22.4919C12.0338 23.0589 10.9588 23.4919 8.9998 23.4919C7.0408 23.4919 5.9658 23.0589 5.4658 22.4919C5.1528 22.1379 4.9998 21.6689 4.9998 21.1919V17.5059C4.9998 16.8809 4.9798 16.5679 4.7768 16.3809Z" fill="white"/>
<path d="M10 26C10 26.55 10.45 27 11 27C11.55 27 12 26.55 12 26V23.925C11.548 24.184 10.894 24.375 10 24.458V26Z" fill="white"/>
<path d="M7 27C6.45 27 6 26.55 6 26V23.925C6.452 24.184 7.106 24.375 8 24.458V26C8 26.55 7.55 27 7 27Z" fill="white"/>
</svg>
