<svg width="14" height="32" viewBox="0 0 14 32" fill="none" xmlns="http://www.w3.org/2000/svg">
<path fill-rule="evenodd" clip-rule="evenodd" d="M13.3035 5.3975C11.736 3.95769 7.61837 3.99587 7.05106 4.00113L6.99952 4.0015L6.94816 4.00113C6.38195 3.99587 2.26319 3.95763 0.69652 5.3975C-0.779231 6.75334 0.471205 9.21368 0.97662 10.2081L1.02552 10.3045C2.28252 10.6705 4.29352 10.9995 6.99952 10.9995C9.70552 10.9995 11.7175 10.6705 12.9745 10.3045L13.0229 10.2092C13.5279 9.2154 14.7788 6.75381 13.3035 5.3975ZM6.99982 11.9991C5.47682 11.9991 3.25382 11.8561 1.46082 11.4461C2.81882 15.6651 3.05182 19.5241 3.00582 20.6221C2.99482 20.8771 3.08182 21.1181 3.24782 21.3111L3.68882 21.8151C4.64082 21.9281 5.74382 21.9991 6.99982 21.9991C8.25582 21.9991 9.35882 21.9281 10.3108 21.8151L10.7518 21.3111C10.9178 21.1181 11.0048 20.8771 10.9938 20.6221C10.9478 19.5241 11.1808 15.6651 12.5388 11.4461C10.7458 11.8561 8.52282 11.9991 6.99982 11.9991ZM4.50282 25.9694L4.00182 22.8614C5.04382 22.9624 6.18982 22.9994 7.00382 22.9994C7.81782 22.9994 8.96382 22.9624 10.0058 22.8614L9.50482 25.9694C9.47882 26.1874 9.37282 26.3894 9.20482 26.5424L8.73782 26.9664C8.70582 26.9954 8.67682 27.0264 8.64882 27.0584L8.15582 27.6414C7.96582 27.8674 7.67582 27.9994 7.36882 27.9994H7.00382H6.63882C6.33182 27.9994 6.04282 27.8674 5.85282 27.6414L5.35782 27.0584C5.33082 27.0264 5.30182 26.9954 5.27082 26.9664L4.80382 26.5424C4.63582 26.3894 4.52882 26.1874 4.50282 25.9694Z" fill="white"/>
</svg>
