<svg width="18" height="32" viewBox="0 0 18 32" fill="none" xmlns="http://www.w3.org/2000/svg">
<path fill-rule="evenodd" clip-rule="evenodd" d="M11.873 7.68837C10.302 8.09137 7.71904 8.09137 6.14504 7.68837C4.59404 7.29137 4.64204 6.65837 6.21404 6.27437C7.76404 5.89637 10.248 5.89637 11.8 6.27437C13.373 6.65837 13.423 7.29137 11.873 7.68837ZM17.951 14.9344L15.252 5.69137L15.219 5.59537C14.968 5.01437 13.743 4.46337 11.552 4.16737C9.88904 3.94437 8.19704 3.94437 6.53304 4.16837C4.34604 4.46337 3.12304 5.01437 2.87504 5.59537L2.82704 5.74637L0.052039 14.9304C0.012039 15.0604 -0.012961 15.1994 0.00703904 15.3344C0.233039 16.8554 2.98104 18.0814 8.00704 18.2234V23.0274C5.56104 23.1564 3.61104 23.7454 3.12304 24.5004C3.04304 24.6204 3.00304 24.7474 3.00304 24.8754V26.1254C3.00304 27.1604 5.69104 28.0004 9.00804 28.0004C12.324 28.0004 15.014 27.1604 15.014 26.1254V24.8754C15.014 23.9464 12.848 23.1774 10.009 23.0284V18.2234C15.03 18.0794 17.772 16.8514 17.993 15.3294C18.013 15.1974 17.988 15.0624 17.951 14.9344Z" fill="white"/>
</svg>
