<svg width="24" height="32" viewBox="0 0 24 32" fill="none" xmlns="http://www.w3.org/2000/svg">
<path fill-rule="evenodd" clip-rule="evenodd" d="M17.431 16.164C15.826 14.859 14.362 13.363 13.084 11.721C9.135 6.644 10.541 4.949 15.61 9.021C17.261 10.349 18.761 11.882 20.06 13.57C24.046 18.754 22.395 20.198 17.431 16.164ZM24 17.267C24 17.19 24 17.105 23.993 17.029C23.993 16.476 23.753 15.703 23.236 14.736C21.54 11.548 17.588 7.507 14.468 5.774C13.59 5.284 12.878 5.038 12.353 5.008C12.293 5 12.233 5 12.173 5.008C12.113 5 12.06 5 12 5C7.5 5 0 12.667 0 17.267C0 21.531 2.125 25.28 5.351 27.478C5.849 27.818 6.435 28 7.034 28H15.286C15.919 28 16.533 27.796 17.047 27.421C20.628 24.813 24 20.351 24 17.267Z" fill="white"/>
</svg>
