<svg width="20" height="32" viewBox="0 0 20 32" fill="none" xmlns="http://www.w3.org/2000/svg">
<path d="M13.1172 26.6364L12.594 29.2745C12.5611 29.4985 12.419 29.7196 12.1973 29.883L11.7927 30.1816L11.3284 30.6246C11.0807 30.8634 10.7117 31 10.3166 31H9.68343C9.28842 31 8.9194 30.8634 8.67166 30.6239L8.24374 30.2133L7.80282 29.883C7.5802 29.7196 7.439 29.4985 7.40349 29.2612L6.88288 26.6364L7.44073 26.6793C8.20389 26.7392 9.16022 26.7744 9.9996 26.7744C10.839 26.7744 11.7962 26.7392 12.5593 26.6793L13.1172 26.6364ZM14.0302 22.9681L13.4046 25.5197L12.4833 25.5913C11.7482 25.649 10.8172 25.6835 9.9996 25.6835C9.18226 25.6835 8.25201 25.649 7.51815 25.5914L6.59463 25.5197L5.9712 22.9683C7.31364 23.2318 8.65671 23.3636 10 23.3636C11.3438 23.3636 12.6873 23.2317 14.0302 22.9681ZM10 1C12.7747 1 15.4612 1.35782 18.0605 2.07334C19.4482 2.45534 20.2783 3.94612 19.9144 5.4031L19.8642 5.57971L14.2849 21.8004L13.9756 21.8685C12.9967 22.0675 12.0181 22.193 11.0397 22.2451L11.0391 13.0004L13.1172 10.8186H6.88288L8.96098 13.0004L8.96079 22.2433L8.85963 22.2395C7.90922 22.184 6.9586 22.0592 6.00763 21.8651L5.71394 21.8004L0.155129 5.63775C-0.332141 4.22106 0.366717 2.65788 1.71607 2.1463C1.78948 2.11846 1.86406 2.09412 1.93956 2.07333C4.53892 1.35782 7.22538 1 10 1Z" fill="white"/>
</svg>
