<svg width="16" height="32" viewBox="0 0 16 32" fill="none" xmlns="http://www.w3.org/2000/svg">
<path d="M11.1201 21.3423C11.1336 21.6052 11.1875 21.8644 11.2801 22.1109C11.4318 22.5468 11.2915 23.0309 10.9301 23.3186L10.5001 25.9737C10.4729 26.1935 10.3662 26.3958 10.2001 26.5426L9.73005 26.9718L9.64005 27.0617L9.15005 27.6406C8.95747 27.8714 8.67098 28.0034 8.37005 27.9999H7.63005C7.32913 28.0034 7.04264 27.8714 6.85005 27.6406L6.36005 27.0617L6.27005 26.9718L5.80005 26.5426C5.6339 26.3958 5.52721 26.1935 5.50005 25.9737L5.07005 23.2887C4.70856 23.0009 4.56828 22.5169 4.72005 22.0809C4.81433 21.835 4.86836 21.5755 4.88005 21.3124C5.99571 21.4372 7.11741 21.5005 8.24005 21.502C9.12005 21.502 10.1201 21.4421 11.1201 21.3423ZM16.0001 11.9997C16.0036 13.4003 15.6381 14.7772 14.9401 15.9923L14.8301 16.1619C14.7301 16.3216 14.6301 16.4814 14.5201 16.6311C13.1601 18.6074 12.0501 19.0366 11.3701 20.3142C10.3373 20.4278 9.29905 20.4844 8.26005 20.4839C7.04337 20.4847 5.82778 20.4114 4.62005 20.2643C3.94005 19.0266 2.84005 18.5775 1.50005 16.6311C1.39005 16.4814 1.29005 16.3216 1.19005 16.1619L1.08005 15.9923C-0.609362 13.0853 -0.294481 9.43362 1.86773 6.85753C4.02995 4.28144 7.57668 3.33234 10.74 4.48333C13.9033 5.63432 16.006 8.63902 16.0001 11.9997ZM10.0001 12.5686C10.4974 12.4262 10.8401 11.9722 10.8401 11.4557C10.8401 10.9392 10.4974 10.4852 10.0001 10.3428L6.90005 9.49434C6.62005 9.42447 6.47005 9.27475 6.47005 9.17494C6.47005 9.07512 6.62005 8.93538 6.88005 8.85553L10.1001 8.05702C10.2296 8.02896 10.3417 7.94872 10.4098 7.8353C10.478 7.72189 10.4962 7.58538 10.4601 7.45813C10.3912 7.19467 10.1268 7.03195 9.86005 7.08882L6.63005 7.88733C5.99513 8.00348 5.51857 8.53246 5.47005 9.17494C5.51513 9.81888 5.9933 10.3497 6.63005 10.4625L9.71005 11.3209C9.78256 11.3396 9.83242 11.4059 9.83005 11.4806C9.83151 11.5529 9.78102 11.6159 9.71005 11.6304L6.00005 12.6285C5.49436 12.7576 5.14302 13.2155 5.15005 13.7365C5.14559 14.2587 5.49491 14.7181 6.00005 14.8544L9.10005 15.6429C9.38005 15.7128 9.53005 15.8625 9.53005 15.9623C9.53005 16.0621 9.38005 16.2019 9.12005 16.2817L6.00005 17.0104C5.72391 17.0407 5.52468 17.2887 5.55505 17.5643C5.58543 17.84 5.83391 18.0388 6.11005 18.0085H6.23005L9.37005 17.2799C10.005 17.1637 10.4815 16.6347 10.5301 15.9923C10.4783 15.3567 10.0077 14.8338 9.38005 14.7146L6.29005 13.8662C6.21665 13.8559 6.16403 13.7902 6.17005 13.7165C6.16859 13.6442 6.21908 13.5812 6.29005 13.5668L10.0001 12.5686Z" fill="white"/>
</svg>
