<svg width="10" height="32" viewBox="0 0 10 32" fill="none" xmlns="http://www.w3.org/2000/svg">
<path fill-rule="evenodd" clip-rule="evenodd" d="M7.5 23.8893L7.083 26.3753C7.0662 26.5153 7.00588 26.647 6.91074 26.7565L6.833 26.8343L6.444 27.1733L6.371 27.2463L5.96 27.7133C5.8275 27.8641 5.63806 27.9622 5.43102 27.9907L5.305 27.9993H4.695C4.4825 27.9993 4.27972 27.9264 4.1266 27.7973L4.041 27.7133L3.63 27.2463L3.557 27.1733L3.167 26.8343C3.055 26.7367 2.97628 26.6135 2.93852 26.4785L2.918 26.3753L2.5 23.8893C2.8255 23.9193 3.16309 23.9423 3.49369 23.9593L4.1399 23.9856L4.73352 23.9979H5.26652L5.86036 23.9856L6.50675 23.9593C6.72717 23.9479 6.95064 23.9339 7.17146 23.917L7.5 23.8893ZM9.998 17.4684L10 17.5994C10 20.0734 9.239 21.8264 8.27 22.7874C7.373 22.9144 6.279 22.9994 5 22.9994C3.721 22.9994 2.628 22.9144 1.729 22.7874C0.761 21.8264 0 20.0734 0 17.5994L0.00199986 17.4684C1.549 17.8664 3.621 17.9994 5 17.9994C6.38 17.9994 8.451 17.8664 9.998 17.4684ZM5.0003 4C5.89225 4 6.98254 5.61708 7.91695 7.8761L8.12188 8.38827L8.32082 8.9192C8.38604 9.09904 8.45011 9.2816 8.5129 9.4665L8.69725 10.0278C8.72729 10.1224 8.75696 10.2175 8.78626 10.313L8.95741 10.8908C8.98514 10.9879 9.01245 11.0852 9.03933 11.1829L9.19533 11.7719L9.34015 12.3655C9.45594 12.8613 9.55918 13.3593 9.64762 13.8533L9.74651 14.4438C9.80751 14.8357 9.85847 15.2234 9.89822 15.6038L9.94932 16.1685C9.95639 16.2616 9.96272 16.3541 9.9683 16.446C9.1963 16.662 8.0803 16.86 6.6443 16.949C6.8113 16.751 6.9103 16.508 6.9103 16.246C6.9103 15.7813 6.612 15.3736 6.14019 15.1772L6.0073 15.129L4.09997 14.5278C4.0333 14.5029 4.0053 14.4793 4.0053 14.426C4.0053 14.38 4.0333 14.3536 4.09997 14.3259L4.2303 14.281L6.0663 13.704C6.6373 13.525 6.9933 13.103 6.9933 12.605C6.9933 12.1476 6.69416 11.7549 6.20449 11.5555L6.0663 11.506L4.2903 10.947C4.1513 10.904 4.0883 10.88 4.0883 10.783C4.0883 10.7062 4.12862 10.6755 4.20568 10.6468L4.2703 10.625L6.6233 9.991C6.8893 9.92 7.0483 9.645 6.9753 9.379C6.91219 9.14167 6.68789 8.99046 6.45201 9.01035L6.3633 9.026L3.9913 9.666C3.4423 9.838 3.0883 10.276 3.0883 10.783C3.0883 11.2487 3.38576 11.6555 3.8582 11.8526L3.9913 11.901L5.7673 12.459C5.9293 12.51 5.9933 12.53 5.9933 12.604C5.9933 12.6687 5.96486 12.6893 5.89789 12.711L5.7673 12.75L3.9313 13.326C3.3593 13.506 3.0053 13.926 3.0053 14.425C3.0053 14.8824 3.30276 15.2743 3.79292 15.4743L3.9313 15.524L5.7083 16.083C5.8463 16.126 5.9103 16.145 5.9103 16.246C5.9103 16.334 5.86934 16.3586 5.79715 16.3829L5.7373 16.402L3.4903 16.957C1.9903 16.872 0.828301 16.668 0.0313005 16.446C0.0591952 15.9864 0.105942 15.5117 0.16929 15.0281L0.253131 14.4438L0.352045 13.8533C0.458207 13.2605 0.585681 12.6619 0.730577 12.0683L0.881138 11.4767L1.04245 10.8908C1.07018 10.7938 1.09833 10.6971 1.12687 10.6007L1.30268 10.0278C1.36277 9.83864 1.42428 9.65141 1.48709 9.4665L1.67922 8.9192C1.71183 8.82928 1.74474 8.74004 1.77791 8.65154L1.98001 8.12969C2.04835 7.95893 2.11761 7.7915 2.18767 7.62779L2.40003 7.1482C3.25772 5.27769 4.20746 4 5.0003 4Z" fill="white"/>
</svg>
