<svg width="24" height="32" viewBox="0 0 24 32" fill="none" xmlns="http://www.w3.org/2000/svg">
<path fill-rule="evenodd" clip-rule="evenodd" d="M19.3912 21.5164C17.4842 22.9074 15.3302 23.1964 14.5812 22.1624C13.8332 21.1274 14.7732 19.1624 16.6802 17.7715C18.5872 16.3805 20.7412 16.0915 21.4902 17.1245C22.2392 18.1605 21.2992 20.1254 19.3912 21.5164ZM23.6152 16.6015L14.8702 6.59461C13.9722 5.43563 11.3402 6.02262 8.99024 7.90559C6.63824 9.78757 5.39525 12.5895 6.29124 13.7485L7.16724 14.9995H4.97425C4.92225 13.7895 4.77725 12.6285 4.53325 11.7025C4.27525 10.7316 3.95525 10.1796 3.62525 10.0376C3.57125 10.0116 3.51225 9.99957 3.45325 9.99957H1.54725C1.48925 9.99957 1.43425 10.0116 1.37525 10.0376C1.03225 10.1836 0.702249 10.7806 0.44025 11.8115C-0.14675 14.1395 -0.14675 17.8675 0.44025 20.1924C0.702249 21.2234 1.03225 21.8164 1.37525 21.9624C1.43425 21.9884 1.48925 21.9994 1.54725 21.9994H3.45325C3.51225 21.9994 3.57125 21.9884 3.62525 21.9624C3.95525 21.8204 4.27525 21.2684 4.53325 20.2934C4.77725 19.3684 4.92125 18.2085 4.97425 16.9995H8.56824L13.5142 24.0624C14.6212 25.6124 17.7802 25.1974 20.5702 23.1374C23.3592 21.0774 24.7222 18.1505 23.6152 16.6015Z" fill="white"/>
</svg>
