<svg width="24" height="32" viewBox="0 0 24 32" fill="none" xmlns="http://www.w3.org/2000/svg">
<path fill-rule="evenodd" clip-rule="evenodd" d="M17.865 7.69425C16.293 8.10125 13.711 8.10125 12.137 7.69425C10.586 7.29325 10.634 6.65425 12.205 6.26725C13.756 5.88525 16.239 5.88525 17.792 6.26725C19.365 6.65425 19.415 7.29325 17.865 7.69425ZM23.951 14.7522L21.252 5.66325L21.219 5.56925C20.968 4.99825 19.743 4.45625 17.552 4.16525C15.888 3.94525 14.197 3.94425 12.533 4.16625C10.345 4.45625 9.123 4.99825 8.875 5.56925L8.826 5.71625L6.052 14.7483C6.011 14.8763 5.987 15.0122 6.007 15.1453C6.23 16.6193 8.903 17.8083 13.786 17.9773C13.128 20.2952 10.997 22.0002 8.47 22.0002C7.149 22.0002 5.935 21.5322 4.982 20.7563C4.943 19.3243 4.799 17.9332 4.533 16.8442C4.275 15.7922 3.956 15.1953 3.626 15.0413C3.571 15.0122 3.512 15.0002 3.454 15.0002H1.548C1.489 15.0002 1.434 15.0122 1.376 15.0413C1.032 15.1993 0.702 15.8442 0.441 16.9622C-0.147 19.4852 -0.147 23.5233 0.441 26.0422C0.702 27.1593 1.032 27.8002 1.376 27.9592C1.434 27.9882 1.489 28.0002 1.548 28.0002H3.454C3.512 28.0002 3.571 27.9882 3.626 27.9592C3.956 27.8042 4.275 27.2083 4.533 26.1513C4.744 25.2882 4.877 24.2302 4.945 23.1192C5.998 23.6792 7.197 24.0002 8.47 24.0002C12.102 24.0002 15.142 21.4152 15.846 17.9882C20.969 17.8672 23.77 16.6523 23.993 15.1403C24.012 15.0103 23.988 14.8783 23.951 14.7522Z" fill="white"/>
</svg>
