<svg width="24" height="32" viewBox="0 0 24 32" fill="none" xmlns="http://www.w3.org/2000/svg">
<path fill-rule="evenodd" clip-rule="evenodd" d="M17.7753 24.55C16.4583 24.122 14.5423 24.122 13.2243 24.549L12.1333 16.79C14.2803 17.063 16.7192 17.063 18.8663 16.791L17.7753 24.55ZM21.5823 12.756C20.0183 12.284 17.9843 12.043 15.9213 12.012C15.4392 8.619 12.5232 6 9.00025 6C7.45825 6 6.03525 6.508 4.87725 7.356C4.79825 6.702 4.68525 6.089 4.53325 5.561C4.27525 4.67 3.95625 4.165 3.62625 4.034C3.57125 4.011 3.51225 4 3.45425 4H1.54725C1.48925 4 1.43425 4.011 1.37625 4.034C1.03225 4.168 0.70225 4.715 0.44025 5.66C-0.14675 7.795 -0.14675 11.212 0.44025 13.343C0.70225 14.288 1.03225 14.832 1.37625 14.966C1.43425 14.989 1.48925 15 1.54725 15H3.45425C3.51225 15 3.57125 14.989 3.62625 14.966C3.95625 14.835 4.27525 14.33 4.53325 13.436C4.82025 12.44 4.96825 11.148 4.99125 9.834C5.93125 8.646 7.37025 7.866 9.00025 7.866C11.5022 7.866 13.5852 9.669 14.0363 12.042C12.3383 12.129 10.7122 12.363 9.41125 12.756C6.11825 13.75 6.22425 15.332 9.56825 16.291C9.72125 16.335 9.89825 16.366 10.0592 16.406L11.5013 26.652C11.6223 27.101 12.3352 27.647 13.9792 27.889C14.4852 27.963 14.9942 28 15.5022 28C16.0103 28 16.5182 27.963 17.0243 27.889C18.6663 27.647 19.3433 27.098 19.4993 26.654L20.9403 16.408C21.1033 16.367 21.2832 16.335 21.4382 16.291C24.7782 15.332 24.8792 13.75 21.5823 12.756Z" fill="white"/>
</svg>
