<svg width="32" height="32" viewBox="0 0 32 32" fill="none" xmlns="http://www.w3.org/2000/svg">
<path fill-rule="evenodd" clip-rule="evenodd" d="M29.375 13.8676C29.901 13.7106 30.008 13.2696 29.61 12.8886L26.744 10.1446C26.347 9.76458 25.59 9.57958 25.062 9.73258L2.163 16.3776C1.635 16.5306 1.518 16.9766 1.903 17.3696L4.794 20.3096C5.179 20.7016 5.926 20.8936 6.452 20.7356L29.375 13.8676ZM0.002 16.4346C0.002 15.8856 0.434 15.3096 0.962 15.1566L25.479 8.05358C26.007 7.90058 26.765 8.08658 27.161 8.46758L31.273 12.4036C31.671 12.7846 31.996 13.5456 31.997 14.0956L31.999 16.8926C32 17.4426 31.57 18.0266 31.046 18.1906L6.449 25.8776C5.924 26.0416 5.063 26.0446 4.538 25.8846L0.957 24.7966C0.431 24.6366 0 24.0556 0 23.5056L0.002 16.4346Z" fill="white"/>
</svg>
